<svg width="1896" height="1896" viewBox="0 0 1896 1896" fill="none" xmlns="http://www.w3.org/2000/svg">
<path d="M760.477 1780.51L558.503 1222.59L1232.27 978.155L760.477 1780.51Z" fill="#1A687D"/>
<path d="M1223.32 994.234L1131.42 1148.79L760.693 1779.71L797.23 1329.81L1223.32 994.234Z" fill="#008D9F"/>
<path d="M387.13 406.72L600.003 1057.5L865.555 941.658" stroke="#00BCD4" stroke-width="178.8"/>
<mask id="path-4-inside-1_198_2" fill="white">
<path d="M1012.98 221.12C1117.77 191.119 1231.39 200.85 1328.83 248.173C1426.27 295.496 1499.55 376.535 1532.56 473.461C1565.56 570.387 1555.59 675.262 1504.82 765.013C1454.06 854.764 1366.67 922.04 1261.87 952.042L1137.42 586.581L1012.98 221.12Z"/>
</mask>
<path d="M1012.98 221.12C1117.77 191.119 1231.39 200.85 1328.83 248.173C1426.27 295.496 1499.55 376.535 1532.56 473.461C1565.56 570.387 1555.59 675.262 1504.82 765.013C1454.06 854.764 1366.67 922.04 1261.87 952.042L1137.42 586.581L1012.98 221.12Z" fill="#00BCD4" stroke="#00BCD4" stroke-width="100" mask="url(#path-4-inside-1_198_2)"/>
<path d="M1057.84 301.177L434.86 480.629" stroke="#00BCD4" stroke-width="178.8"/>
<path d="M1238.41 864.605L622.87 1057.17" stroke="#00BCD4" stroke-width="178.8"/>
<path d="M505.62 526.134L339.832 550.707L242.674 442.151L424.532 389.934L505.62 526.134Z" fill="#00BCD4"/>
<rect x="1233.43" y="802.621" width="640.274" height="467.697" transform="rotate(163.379 1233.43 802.621)" fill="#00BCD4"/>
<path d="M1340.5 917.578L1269.94 759.89L1029 217.004L1354.91 485.443L1340.5 917.578Z" fill="#00BCD4"/>
<path d="M242 442.004L457.858 499.666L546 1179L339.136 550.121L242 442.004Z" fill="#008D9F"/>
<path d="M650.049 1142.15L645.189 1127.02L544.997 1179L650.049 1142.15Z" fill="#00BCD4"/>
</svg>
