<svg width="78" height="78" viewBox="0 0 78 78" fill="none" xmlns="http://www.w3.org/2000/svg">
<path d="M56.8687 46.7416C55.8989 46.2573 51.128 43.9238 50.2398 43.5988C49.3483 43.2771 48.7017 43.1178 48.0519 44.0863C47.4086 45.0516 45.5472 47.2258 44.9823 47.8693C44.4174 48.5161 43.8492 48.5941 42.8793 48.1131C41.9095 47.6256 38.7811 46.6083 35.0748 43.3193C32.1913 40.7583 30.2418 37.5961 29.6769 36.6276C29.112 35.6623 29.6181 35.1391 30.1014 34.6581C30.539 34.2258 31.0745 33.5303 31.5578 32.9681C32.0444 32.4026 32.2044 31.9996 32.5309 31.3528C32.8542 30.7093 32.6942 30.1471 32.4493 29.6628C32.2044 29.1786 30.2647 24.4238 29.4581 22.4901C28.6679 20.6083 27.8678 20.8651 27.2735 20.8326C26.7086 20.8066 26.062 20.8001 25.4121 20.8001C24.7656 20.8001 23.7141 21.0406 22.8259 22.0091C21.9377 22.9743 19.4297 25.3111 19.4297 30.0658C19.4297 34.8173 22.9075 39.4096 23.3908 40.0563C23.8774 40.6998 30.2353 50.4563 39.9698 54.639C42.285 55.6335 44.0908 56.2283 45.5015 56.6703C47.8266 57.408 49.9426 57.304 51.6113 57.0538C53.4759 56.7775 57.352 54.717 58.1619 52.4615C58.9717 50.206 58.9717 48.2723 58.7268 47.8693C58.4852 47.4663 57.8419 47.2258 56.8687 46.7416ZM39.1632 70.8013H39.1501C33.3694 70.8017 27.695 69.2549 22.7214 66.3228L21.5425 65.6273L9.32628 68.8188L12.5853 56.9628L11.8179 55.7473C8.58644 50.6262 6.87696 44.6995 6.88695 38.6523C6.89021 20.9398 21.3727 6.52937 39.1762 6.52937C47.7972 6.52937 55.9022 9.87687 61.9956 15.9479C65.0021 18.9269 67.385 22.4697 69.0066 26.3714C70.6282 30.273 71.4562 34.4561 71.4427 38.6783C71.4329 56.3908 56.9536 70.8013 39.1632 70.8013ZM66.6359 11.3361C63.0379 7.73162 58.757 4.87362 54.0411 2.92773C49.3252 0.981839 44.2683 -0.0132478 39.1632 0.000133177C17.7578 0.000133177 0.336347 17.3389 0.32655 38.6491C0.32655 45.4611 2.11278 52.1105 5.51217 57.9703L0 78L20.589 72.6245C26.2827 75.7117 32.663 77.3297 39.1469 77.3305H39.1632C60.5653 77.3305 77.99 59.9918 77.9998 38.6783C78.0156 33.5995 77.0194 28.5679 75.0688 23.8747C73.1182 19.1815 70.252 14.9198 66.6359 11.3361Z" fill="#46B5E5"/>
</svg>
